# AST/ASF file generated using VICON BodyLanguage
# -----------------------------------------------
:version 1.10
:name VICON
:units
  mass 1.0
  length 0.45
  angle deg
:documentation
   .ast/.asf automatically generated from VICON data using
   VICON BodyBuilder and BodyLanguage model FoxedUp or BRILLIANT.MOD
:root
   order TX TY TZ RX RY RZ
   axis XYZ
   position 0 0 0  
   orientation 0 0 0 
:bonedata
  begin
     id 1 
     name lhipjoint
     direction 0.714689 -0.624256 0.315473 
     length 2.45343 
     axis 0 0 0  XYZ
  end
  begin
     id 2 
     name lfemur
     direction 0.34202 -0.939693 0  
     length 6.59069  
     axis 0 0 20  XYZ
    dof rx ry rz
    limits (-160.0 20.0)
           (-70.0 70.0)
           (-60.0 70.0)
  end
  begin
     id 3 
     name ltibia
     direction 0.34202 -0.939693 0   
     length 6.73476   
     axis 0 0 20   XYZ
    dof rx
    limits (-10.0 170.0)
  end
  begin
     id 4 
     name lfoot
     direction 0.0718085 -0.197292 0.977711   
     length 1.52607   
     axis -90 7.62852e-016 20   XYZ
    dof rx rz
    limits (-45.0 90.0)
           (-70.0 20.0)
  end
  begin
     id 5 
     name ltoes
     direction 1.53553e-011 -4.22024e-011 1   
     length 0.777832   
     axis -90 7.62852e-016 20   XYZ
    dof rx
    limits (-90.0 20.0)
  end
  begin
     id 6 
     name rhipjoint
     direction -0.727419 -0.612432 0.309497   
     length 2.50079  
     axis 0 0 0  XYZ 
  end
  begin
     id 7 
     name rfemur
     direction -0.34202 -0.939693 0   
     length 6.51665   
     axis 0 0 -20   XYZ
    dof rx ry rz
    limits (-160.0 20.0)
           (-70.0 70.0)
           (-70.0 60.0)
  end
  begin
     id 8 
     name rtibia
     direction -0.34202 -0.939693 0   
     length 6.48919   
     axis 0 0 -20   XYZ
    dof rx
    limits (-10.0 170.0)
 end
 begin
     id 9 
     name rfoot
     direction -0.112205 -0.308282 0.944655   
     length 1.68717  
     axis -90 -7.62852e-016 -20   XYZ
    dof rx rz
    limits (-45.0 90.0)
           (-20.0 70.0)
  end
  begin
     id 10 
     name rtoes
     direction -1.53583e-011 -4.21993e-011 1   
     length 0.846859   
     axis -90 -7.62852e-016 -20   XYZ
    dof rx
    limits (-90.0 20.0)
  end
  begin
     id 11 
     name lowerback
     direction -0.00119603 0.996364 -0.0851956   
     length 1.67242   
     axis 0 0 0   XYZ
    dof rx ry rz
    limits (-20.0 45.0)
           (-30.0 30.0)
           (-30.0 30.0)
  end
  begin
     id 12 
     name upperback
     direction -0.00531001 0.998318 0.0577248   
     length 1.64819   
     axis 0 0 0   XYZ
    dof rx ry rz
    limits (-20.0 45.0)
           (-30.0 30.0)
           (-30.0 30.0)
  end
  begin
     id 13 
     name thorax
     direction -0.00653676 0.995132 0.0983291   
     length 1.67429   
     axis 0 0 0   XYZ
    dof rx ry rz
    limits (-20.0 45.0)
           (-30.0 30.0)
           (-30.0 30.0)
  end
  begin
     id 14 
     name lowerneck
     direction 0.0141424 0.999886 0.00525412   
     length 1.59623   
     axis 0 0 0   XYZ
    dof rx ry rz
    limits (-20.0 45.0)
           (-30.0 30.0)
           (-30.0 30.0)
  end
  begin
     id 15 
     name upperneck
     direction -0.0640064 0.987178 -0.146232   
     length 1.59576   
     axis 0 0 0   XYZ
    dof rx ry rz
    limits (-20.0 45.0)
           (-30.0 30.0)
           (-30.0 30.0)
  end
  begin
     id 16
     name head
     direction -0.0222942 0.998496 -0.0500859  
     length 1.60959  
     axis 0 0 0   XYZ
    dof rx ry rz
    limits (-20.0 45.0)
           (-30.0 30.0)
           (-30.0 30.0)
  end
  begin
     id 17 
     name lclavicle
     direction 0.908549 0.392612 0.142806  
     length 2.80649  
     axis 0 0 0   XYZ
    dof ry rz
    limits (-20.0 10.0)
           (0.0 20.0)
  end
  begin
     id 18 
     name lhumerus
     direction 1 -4.48968e-011 1.08832e-028   
     length 4.2884   
     axis -180 -30 -90   XYZ
    dof rx ry rz
    limits (-60.0 90.0)
           (-90.0 90.0)
           (-90.0 90.0)
  end
  begin
     id 19
     name lradius
     direction 1 -4.48952e-011 -3.02642e-028   
     length 3.06552   
     axis -180 -30 -90   XYZ
    dof rx
    limits (-10.0 170.0)
  end
  begin
     id 20
     name lwrist
     direction 1 -4.49014e-011 1.58672e-027   
     length 1.53276   
     axis -1.65735e-015 90 90   XYZ
    dof ry
    limits (-180.0 0.0)
 end
  begin
     id 21 
     name lhand
     direction 1 -4.48928e-011 3.17344e-027   
     length 0.753045   
     axis -2.02492e-015 90 90   XYZ
    dof rx rz
    limits (-90.0 90.0)
           (-45.0 45.0)
  end
  begin
     id 22 
     name lfingers
     direction 1 -4.48958e-011 6.34687e-027   
     length 0.607124   
     axis -4.04985e-015 90 90   XYZ
    dof rx
    limits (0.0 90.0)
  end
  begin
     id 23
     name lthumb
     direction 0.707107 -6.34905e-011 0.707107   
     length 0.871712   
     axis -90 45 2.85299e-015   XYZ
    dof rx rz
    limits (-45.0 45.0)
           (-45.0 45.0)
  end
  begin
     id 24 
     name rclavicle
     direction -0.885098 0.45949 0.0739604   
     length 2.9478  
     axis 0 0 0   XYZ 
    dof ry rz
    limits (-10.0 20.0)
           (-20.0 0.0)
  end
  begin
     id 25 
     name rhumerus
     direction -1 -4.4898e-011 -2.61739e-027  
     length 4.52172   
     axis -180 30 90   XYZ
    dof rx ry rz
    limits (-90.0 60.0)
           (-90.0 90.0)
           (-90.0 90.0)
  end
  begin
     id 26 
     name rradius
     direction -1 -4.48945e-011 9.02552e-028   
     length 2.8914   
     axis -180 30 90   XYZ
    dof rx
    limits (-10.0 170.0)
  end
  begin
     id 27 
     name rwrist
     direction -1 -4.49018e-011 1.58672e-027   
     length 1.4457   
     axis -1.65735e-015 -90 -90   XYZ
    dof ry
    limits (-180.0 0.0)
  end
  begin
     id 28
     name rhand
     direction -1 -4.48825e-011 3.17344e-027   
     length 0.680541   
     axis -2.02492e-015 -90 -90   XYZ
    dof rx rz
    limits (-90.0 90.0)
           (-45.0 45.0)
  end
  begin
     id 29
     name rfingers
     direction -1 -4.49067e-011 6.34687e-027   
     length 0.54867   
     axis -4.04985e-015 -90 -90   XYZ
    dof rx
    limits (0.0 90.0)
  end
  begin
     id 30
     name rthumb
     direction -0.707107 -6.34833e-011 0.707107   
     length 0.787783   
     axis -90 -45 -2.85299e-015   XYZ
    dof rx rz
    limits (-45.0 45.0)
           (-45.0 45.0)
  end
:hierarchy
  begin
    root lhipjoint rhipjoint lowerback
    lhipjoint lfemur
    lfemur ltibia
    ltibia lfoot
    lfoot ltoes
    rhipjoint rfemur
    rfemur rtibia
    rtibia rfoot
    rfoot rtoes
    lowerback upperback
    upperback thorax
    thorax lowerneck lclavicle rclavicle
    lowerneck upperneck
    upperneck head
    lclavicle lhumerus
    lhumerus lradius
    lradius lwrist
    lwrist lhand lthumb
    lhand lfingers
    rclavicle rhumerus
    rhumerus rradius
    rradius rwrist
    rwrist rhand rthumb
    rhand rfingers
  end

#!OML:ASF E:\emotionWalksFemale\Project 1\Capture day 1\Session 1\Female1.ASF
:FULLY-SPECIFIED
:DEGREES
178
root 9.08517 19.4861 17.5911 190.317 -15.8203 -180.21
lowerback 4.1966 3.23072 2.94248
upperback -6.07392 4.27182 -1.54437
thorax -8.41112 1.75956 -3.74017
lowerneck -9.10617 8.35586 8.59498
upperneck 8.09316 11.0619 -9.58815
head 4.93548 5.14993 -3.50994
rclavicle -6.40817e-014 1.78409e-014
rhumerus -7.56168 15.2027 -47.5052
rradius 52.9143
rwrist 14.638
rhand -4.3115 -56.2746
rfingers 7.12502
rthumb 21.4548 -445.107
lclavicle -6.40817e-014 1.78409e-014
lhumerus -40.3058 -10.5416 76.9843
lradius 34.9901
lwrist -31.2384
lhand 20.6928 -27.6965
lfingers 7.12502
lthumb 45.18 -4.2682
rfemur -8.43316 14.3808 22.8081
rtibia 14.8561
rfoot 10.0974 -37.7475
rtoes 42.1746
lfemur -13.9918 -24.3514 -19.3211
ltibia 21.1659
lfoot -34.2881 28.7123
ltoes 66.1857
179
root 9.09217 19.669 17.5242 190.358 -17.3662 -180.082
lowerback 4.73792 3.25511 3.42708
upperback -6.05857 4.37213 -1.63023
thorax -8.66566 1.77153 -4.15063
lowerneck -9.08321 9.16625 9.44187
upperneck 8.06579 12.1077 -10.0221
head 5.09965 5.66458 -3.66874
rclavicle -7.84781e-014 7.40473e-015
rhumerus -10.5766 12.798 -47.6099
rradius 50.8207
rwrist 17.8827
rhand -2.25522 -57.8077
rfingers 7.12502
rthumb 23.4286 -446.401
lclavicle -7.84781e-014 7.40473e-015
lhumerus -38.5717 -6.4758 75.8355
lradius 31.4834
lwrist -35.8899
lhand 19.8299 -28.0799
lfingers 7.12502
lthumb 44.3766 -4.33891
rfemur -9.47922 16.1728 22.4454
rtibia 14.5512
rfoot 9.00493 -37.7235
rtoes 41.7067
lfemur -14.7933 -24.3129 -19.1388
ltibia 21.078
lfoot -35.2566 27.9937
ltoes 66.8572
180
root 9.10445 19.8351 17.4597 190.088 -19.1912 -179.864
lowerback 5.64165 3.11983 3.95462
upperback -5.98143 4.30067 -1.58375
thorax -9.09152 1.69789 -4.45151
lowerneck -9.25793 9.97275 9.87399
upperneck 8.22374 13.1506 -9.99337
head 5.30594 6.1826 -3.60222
rclavicle 1.65698e-014 -7.40473e-015
rhumerus -13.6369 11.5057 -47.5151
rradius 48.8268
rwrist 19.7565
rhand -2.53897 -58.3625
rfingers 7.12502
rthumb 23.1564 -446.991
lclavicle 1.65698e-014 -7.40473e-015
lhumerus -37.2782 -2.26426 74.6514
lradius 28.4246
lwrist -40.881
lhand 19.074 -28.4543
lfingers 7.12502
lthumb 43.6715 -4.45003
rfemur -10.2051 17.8189 22.2075
rtibia 14.2493
rfoot 8.56852 -38.1441
rtoes 41.0222
lfemur -15.275 -23.8052 -19.0743
ltibia 20.9231
lfoot -35.9855 27.0391
ltoes 67.3574
181
root 9.12499 19.9906 17.399 189.706 -21.2714 -179.724
lowerback 6.70752 2.86369 4.28831
upperback -5.81844 4.07683 -1.41696
thorax -9.56013 1.56786 -4.50223
lowerneck -9.59331 10.6812 10.1441
upperneck 8.36043 14.0906 -10.2039
head 5.53317 6.62162 -3.58121
rclavicle 5.13243e-014 -1.04362e-014
rhumerus -16.3739 10.609 -47.082
rradius 46.5131
rwrist 21.8659
rhand -2.36111 -59.3691
rfingers 7.12502
rthumb 23.327 -447.976
lclavicle 5.13243e-014 -1.04362e-014
lhumerus -36.2134 2.21426 73.4896
lradius 25.806
lwrist -46.2698
lhand 18.7781 -28.7484
lfingers 7.12502
lthumb 43.3951 -4.64361
rfemur -10.8252 19.0417 21.8827
rtibia 14.0156
rfoot 8.94626 -38.5406
rtoes 41.5812
lfemur -15.6607 -23.2486 -19.1375
ltibia 20.7449
lfoot -35.318 27.4915
ltoes 67.3283
182
root 9.14289 20.1355 17.3398 189.379 -22.9926 -179.462
lowerback 7.68645 2.7474 4.70773
upperback -5.71046 4.0516 -1.23753
thorax -10.0153 1.52426 -4.60579
lowerneck -9.74317 11.2274 10.5462
upperneck 8.34606 14.8454 -10.8456
head 5.71377 6.95239 -3.73882
rclavicle 1.01823e-014 -4.37326e-015
rhumerus -18.7953 10.0708 -46.6294
rradius 43.5698
rwrist 23.9055
rhand -1.87296 -59.5166
rfingers 7.12502
rthumb 23.7952 -448.063
lclavicle 1.01823e-014 -4.37326e-015
lhumerus -35.6179 5.8515 72.7455
lradius 24.028
lwrist -51.0134
lhand 19.9567 -27.5723
lfingers 7.12502
lthumb 44.4947 -3.87645
rfemur -11.7381 19.7579 21.5101
rtibia 13.9327
rfoot 11.246 -38.0946
rtoes 40.5619
lfemur -16.0963 -23.2324 -19.0343
ltibia 20.4919
lfoot -35.4665 27.686
ltoes 67.3663
183
root 9.16235 20.2565 17.2617 188.694 -24.857 -179.175
lowerback 8.71581 2.53703 5.02506
upperback -5.53301 3.90443 -0.990857
thorax -10.4496 1.43306 -4.55896
lowerneck -9.684 11.6669 10.9499
upperneck 8.35327 15.4675 -11.4114
head 5.85356 7.23011 -3.89569
rclavicle 3.27063e-014 6.75868e-015
rhumerus -21.1811 9.9431 -46.368
rradius 40.5179
rwrist 25.8068
rhand -2.00363 -59.1941
rfingers 7.12502
rthumb 23.6699 -447.757
lclavicle 3.27063e-014 6.75868e-015
lhumerus -35.6159 7.92824 72.6731
lradius 23.2459
lwrist -54.2637
lhand 23.2258 -24.0136
lfingers 7.12502
lthumb 47.5274 -1.58322
rfemur -12.1246 20.8892 21.2989
rtibia 13.9364
rfoot 11.676 -38.0029
rtoes 39.8419
lfemur -16.0185 -23.6039 -19.0374
ltibia 20.2029
lfoot -37.0506 26.0978
ltoes 67.7384
184
root 9.17021 20.3633 17.1936 188.138 -26.7262 -178.998
lowerback 9.60905 2.28086 5.4253
upperback -5.33451 3.70218 -0.754204
thorax -10.7811 1.31188 -4.54456
lowerneck -9.60865 12.0083 11.044
upperneck 8.22068 15.9648 -11.7907
head 5.89708 7.45262 -3.96768
rclavicle 6.79036e-014 -2.16675e-014
rhumerus -23.4933 10.0057 -46.1964
rradius 37.6164
rwrist 28.3777
rhand -1.50245 -59.2406
rfingers 7.12502
rthumb 24.1505 -447.74
lclavicle 6.79036e-014 -2.16675e-014
lhumerus -35.7906 8.76506 73.2816
lradius 23.1684
lwrist -56.3071
lhand 24.2593 -25.6863
lfingers 7.12502
lthumb 48.4802 -3.70073
rfemur -12.6724 21.6335 20.799
rtibia 13.9798
rfoot 12.0451 -37.3474
rtoes 39.2577
lfemur -16.065 -24.034 -19.2131
ltibia 19.9345
lfoot -39.6172 23.2746
ltoes 68.2628
185
root 9.18145 20.4572 17.1202 187.431 -28.6521 -178.812
lowerback 10.4742 1.99836 5.73013
upperback -5.04771 3.45723 -0.476918
thorax -11.0094 1.18541 -4.41352
lowerneck -9.46822 12.258 11.0318
upperneck 7.94202 16.3444 -12.1931
head 5.86647 7.6192 -4.05238
rclavicle 2.60408e-014 1.59028e-015
rhumerus -25.775 10.1637 -46.0799
rradius 35.1033
rwrist 30.8515
rhand 1.22958 -59.9433
rfingers 7.12502
rthumb 26.7676 -448.069
lclavicle 2.60408e-014 1.59028e-015
lhumerus -35.939 8.15333 74.5977
lradius 23.432
lwrist -56.8226
lhand 25.1114 -26.1633
lfingers 7.12502
lthumb 49.2634 -4.56224
rfemur -13.1119 22.7449 20.3058
rtibia 14.2637
rfoot 11.8176 -36.7156
rtoes 38.1976
lfemur -15.8561 -24.0712 -19.5204
ltibia 19.5952
lfoot -40.4548 22.6585
ltoes 68.2691
186
root 9.19472 20.5372 17.0395 186.614 -30.7 -178.569
lowerback 11.3199 1.65091 5.98433
upperback -4.74187 3.12568 -0.104852
thorax -11.2213 1.02503 -4.1249
lowerneck -9.49988 12.4599 10.8095
upperneck 7.8612 16.6707 -12.4556
head 5.89091 7.75068 -4.05758
rclavicle 9.6659e-015 -2.38542e-015
rhumerus -28.1856 10.8 -46.0927
rradius 33.2059
rwrist 33.4088
rhand 0.785953 -58.9971
rfingers 7.12502
rthumb 26.343 -447.187
lclavicle 9.6659e-015 -2.38542e-015
lhumerus -36.096 6.47185 76.5637
lradius 23.7945
lwrist -55.7345
lhand 25.5618 -25.9035
lfingers 7.12502
lthumb 49.6765 -4.51255
rfemur -13.4927 24.0793 19.8809
rtibia 14.8195
rfoot 10.842 -36.6492
rtoes 37.3343
lfemur -15.4454 -23.7227 -19.8974
ltibia 19.1024
lfoot -40.4383 22.5788
ltoes 68.1544
187
root 9.2121 20.6021 16.9548 185.941 -33.0084 -178.487
lowerback 12.0502 1.2671 6.10768
upperback -4.50344 2.71857 0.286738
thorax -11.4515 0.835333 -3.71259
lowerneck -9.60441 12.4922 10.5294
upperneck 7.94296 16.7848 -12.7517
head 5.95251 7.76744 -4.08579
rclavicle -8.69931e-014 -1.98785e-015
rhumerus -30.6947 11.5034 -46.1759
rradius 31.6478
rwrist 36.2608
rhand 2.55831 -58.8474
rfingers 7.12502
rthumb 28.0384 -446.772
lclavicle -8.69931e-014 -1.98785e-015
lhumerus -36.2212 4.31183 78.9099
lradius 24.0543
lwrist -53.7848
lhand 25.7522 -25.6576
lfingers 7.12502
lthumb 49.8509 -4.35696
rfemur -13.8747 24.8944 19.3303
rtibia 15.4205
rfoot 10.4406 -36.5665
rtoes 36.5978
lfemur -15.1123 -23.4344 -20.4325
ltibia 18.5822
lfoot -41.0003 21.3543
ltoes 68.2351
188
root 9.23179 20.6549 16.8642 185.552 -35.4139 -178.592
lowerback 12.5439 0.957691 6.11197
upperback -4.38016 2.36303 0.534615
thorax -11.6573 0.671578 -3.38527
lowerneck -9.67071 12.2956 10.6535
upperneck 8.06665 16.5721 -13.3076
head 6.04179 7.62313 -4.29714
rclavicle 7.34509e-014 5.96354e-015
rhumerus -33.6097 11.628 -46.4051
rradius 30.5511
rwrist 39.4653
rhand 4.33164 -58.2478
rfingers 7.12502
rthumb 29.7323 -445.883
lclavicle 7.34509e-014 5.96354e-015
lhumerus -36.4409 1.23756 81.4507
lradius 24.4063
lwrist -50.9119
lhand 25.7652 -25.528
lfingers 7.12502
lthumb 49.8628 -4.23352
rfemur -14.4484 25.3803 18.5806
rtibia 16.1531
rfoot 11.2054 -35.9287
rtoes 33.7452
lfemur -14.8841 -23.4657 -21.0584
ltibia 17.9413
lfoot -41.5833 20.4596
ltoes 68.2956
189
root 9.24782 20.6973 16.7662 185.185 -37.7781 -178.48
lowerback 12.8511 0.696457 6.24417
upperback -4.23676 2.07997 0.807589
thorax -11.7154 0.539544 -3.10628
lowerneck -10.4671 12.1135 10.3301
upperneck 8.77808 16.3717 -13.2498
head 6.34304 7.46237 -4.20527
rclavicle 7.70291e-016 1.90833e-014
rhumerus -36.6215 11.3762 -46.6748
rradius 30.1238
rwrist 42.3573
rhand 5.14323 -57.449
rfingers 7.12502
rthumb 30.5066 -444.943
lclavicle 7.70291e-016 1.90833e-014
lhumerus -36.6588 -2.36549 84.1633
lradius 24.9157
lwrist -47.3563
lhand 25.7044 -24.8324
lfingers 7.12502
lthumb 49.8071 -3.509
rfemur -15.1274 26.2122 17.9506
rtibia 16.9536
rfoot 11.4152 -35.5423
rtoes 30.7104
lfemur -14.6879 -23.103 -21.4873
ltibia 17.221
lfoot -41.0777 20.5129
ltoes 68.285
190
root 9.25497 20.7286 16.6598 184.933 -40.2031 -178.685
lowerback 13.0367 0.40921 6.18164
upperback -4.07478 1.71383 1.03353
thorax -11.6872 0.384858 -2.74525
lowerneck -11.1094 11.8854 9.69917
upperneck 9.39301 16.1259 -12.9312
head 6.53533 7.29627 -4.00588
rclavicle -1.6201e-014 7.15625e-015
rhumerus -39.6045 11.5793 -47.1856
rradius 30.0584
rwrist 43.9328
rhand 5.85524 -57.0681
rfingers 7.12502
rthumb 31.1854 -444.434
lclavicle -1.6201e-014 7.15625e-015
lhumerus -36.9774 -5.38276 86.6674
lradius 25.2803
lwrist -44.5947
lhand 25.514 -23.9741
lfingers 7.12502
lthumb 49.6326 -2.56058
rfemur -15.5482 27.4482 17.0467
rtibia 17.7271
rfoot 11.3901 -35.5089
rtoes 27.3047
lfemur -14.2545 -22.4563 -22.309
ltibia 16.4878
lfoot -39.7615 21.2553
ltoes 68.2034
191
root 9.26844 20.7506 16.5604 184.843 -42.5287 -178.608
lowerback 12.9863 0.14974 6.35508
upperback -4.19246 1.41186 1.23094
thorax -11.8229 0.22833 -2.55685
lowerneck -10.8908 11.5425 9.60023
upperneck 9.64545 15.7161 -12.9855
head 6.52842 7.09329 -4.07325
rclavicle -4.19933e-014 -1.27222e-014
rhumerus -42.9418 12.3024 -48.323
rradius 30.2038
rwrist 44.0967
rhand 6.45043 -56.9212
rfingers 7.12502
rthumb 31.7524 -444.176
lclavicle -4.19933e-014 -1.27222e-014
lhumerus -37.7426 -7.75856 88.6486
lradius 25.6754
lwrist -43.1493
lhand 25.1146 -23.9076
lfingers 7.12502
lthumb 49.2663 -2.30794
rfemur -16.3685 28.7074 16.1444
rtibia 18.3638
rfoot 10.5512 -36.0078
rtoes 26.399
lfemur -14.2791 -21.9148 -22.7236
ltibia 15.8652
lfoot -38.5232 21.7431
ltoes 68.1459
192
root 9.2835 20.7581 16.4493 184.802 -44.8906 -178.449
lowerback 12.6677 -0.11881 6.42164
upperback -4.35532 1.05584 1.41713
thorax -11.8538 0.0561802 -2.30431
lowerneck -10.3725 11.1522 9.61468
upperneck 9.59993 15.2073 -12.9949
head 6.3692 6.87426 -4.17387
rclavicle 5.94118e-014 1.51076e-014
rhumerus -46.3951 13.1936 -50.0182
rradius 30.4291
rwrist 43.2391
rhand 5.81899 -56.8177
rfingers 7.12502
rthumb 31.1508 -444.19
lclavicle 5.94118e-014 1.51076e-014
lhumerus -38.6767 -9.95775 90.3536
lradius 26.2164
lwrist -42.1325
lhand 25.1083 -24.0222
lfingers 7.12502
lthumb 49.2605 -2.41965
rfemur -17.1817 29.2936 15.4349
rtibia 18.9743
rfoot 8.96422 -36.4486
rtoes 28.0986
lfemur -14.3628 -21.1319 -23.0767
ltibia 15.2356
lfoot -36.5746 22.9281
ltoes 68.0504
